<?xml version="1.0" encoding="utf-8"?>
<!-- Generator: Adobe Illustrator 25.3.1, SVG Export Plug-In . SVG Version: 6.00 Build 0)  -->
<svg version="1.1" id="visual" xmlns="http://www.w3.org/2000/svg" xmlns:xlink="http://www.w3.org/1999/xlink" x="0px" y="0px"
	 viewBox="0 0 900 136" style="enable-background:new 0 0 900 136;" xml:space="preserve">
<style type="text/css">
	.st0{fill:#0066FF;}
</style>
<path class="st0" d="M0,0l21.5,10.7C43,21.3,86,42.7,128.8,38.2c42.9-4.5,85.5-34.9,128.4-36.9C300-0.7,343,25.7,385.8,40
	c42.9,14.3,85.5,16.7,128.4,16.2c42.8-0.5,85.8-3.9,128.6-16C685.7,28,728.3,7,771.2,5.3c42.8-1.6,85.8,16,107.3,24.9L900,39v98
	h-21.5c-21.5,0-64.5,0-107.3,0c-42.9,0-85.5,0-128.4,0c-42.8,0-85.8,0-128.6,0c-42.9,0-85.5,0-128.4,0c-42.8,0-85.8,0-128.6,0
	c-42.9,0-85.5,0-128.4,0c-42.8,0-85.8,0-107.3,0H0V0z"/>
</svg>
